<svg id="Layer_1" data-name="Layer 1" xmlns="http://www.w3.org/2000/svg" width="500" height="133.67" viewBox="0 0 500 133.67"><defs><style>.cls-1{fill:#fff;}.cls-2{fill:#1d1d1b;}</style></defs><title>Artboard 1</title><rect class="cls-1" x="483" y="114.48" width="10.09" height="2.91"/><path class="cls-2" d="M32.83,74.41H34a22.43,22.43,0,0,0,1.28,5.68,12.55,12.55,0,0,0,2.76,4.4,12.19,12.19,0,0,0,4.52,2.86,18.69,18.69,0,0,0,6.48,1,14.79,14.79,0,0,0,4.2-.55,8.63,8.63,0,0,0,3.12-1.57,5,5,0,0,0,1.68-2.43A4.79,4.79,0,0,0,58,80.74a5.31,5.31,0,0,0-3.08-2.89q-2.43-1.11-5.72-2.28c-1.87-.65-3.77-1.37-5.72-2.15A25.49,25.49,0,0,1,38,70.5a14.7,14.7,0,0,1-4-4.21,11,11,0,0,1-1.56-6c0-.37,0-.78,0-1.23a7,7,0,0,1,.2-1.35,10.78,10.78,0,0,1,4.4-7.41q3.51-2.43,9.52-2.67a14.86,14.86,0,0,1,5.6.79,30.54,30.54,0,0,1,3.68,1.66,4.5,4.5,0,0,0,2.24.86c.75,0,1.2-.27,1.36-.82a5.71,5.71,0,0,0,.24-1.57H61V60.88H59.63a25.86,25.86,0,0,0-1.52-5,12.17,12.17,0,0,0-2.52-3.81,10.63,10.63,0,0,0-3.8-2.42,14.79,14.79,0,0,0-5.36-.87,18,18,0,0,0-4,.44,10,10,0,0,0-3.32,1.32A6,6,0,0,0,37,52.89a5.93,5.93,0,0,0-.6,3.38,5.22,5.22,0,0,0,1.12,2.86A8.71,8.71,0,0,0,40,61.22a19.2,19.2,0,0,0,3.44,1.57c1.28.45,2.61.88,4,1.29,1.76.53,3.53,1.14,5.32,1.81a25.39,25.39,0,0,1,5,2.52,14.93,14.93,0,0,1,3.85,3.66,11.28,11.28,0,0,1,2,5.23,10.6,10.6,0,0,1-.92,5.13,11.45,11.45,0,0,1-3.05,4,13.55,13.55,0,0,1-4.72,2.55,19.13,19.13,0,0,1-6,.9,19.62,19.62,0,0,1-5.52-.71c-1.6-.47-3-.93-4.16-1.38a17.08,17.08,0,0,0-1.8-.71,5.09,5.09,0,0,0-1.64-.28,1.28,1.28,0,0,0-1.24,1A7.25,7.25,0,0,0,34,89.47h-1.2Z"/><path class="cls-2" d="M82.84,68.75V88H88V89H68.52V88h4.8l-.4-38.91h-4.4V48H88v1h-5.2V67.52h21.69V49.08h-5V48H119v1h-5V88h5V89H99.49V88h5V68.75Z"/><path class="cls-2" d="M144.7,47.24a18.62,18.62,0,0,1,8.36,1.87A21.66,21.66,0,0,1,159.62,54a22.44,22.44,0,0,1,4.29,6.88,21,21,0,0,1,1.52,7.72,20.56,20.56,0,0,1-1.52,7.71,21.91,21.91,0,0,1-10.85,11.59,20,20,0,0,1-16.84,0,20.85,20.85,0,0,1-6.56-5A23.2,23.2,0,0,1,125.41,76a21.5,21.5,0,0,1-1.52-7.87,18.77,18.77,0,0,1,1.64-7.56,22.65,22.65,0,0,1,4.49-6.7,23.23,23.23,0,0,1,6.6-4.8A18.07,18.07,0,0,1,144.7,47.24Zm.16,1a9.05,9.05,0,0,0-4.4,1,9.78,9.78,0,0,0-3.12,2.71,13.93,13.93,0,0,0-2,3.81,29.26,29.26,0,0,0-1.2,4.36,34.82,34.82,0,0,0-.6,4.43c-.11,1.46-.16,2.76-.16,3.9s0,2.52.12,4a35.91,35.91,0,0,0,.52,4.42,29.86,29.86,0,0,0,1.12,4.4,13.63,13.63,0,0,0,2,3.84,8.79,8.79,0,0,0,7.56,3.72,9,9,0,0,0,4.48-1,9.31,9.31,0,0,0,3-2.74A12.82,12.82,0,0,0,154,81.14a30.69,30.69,0,0,0,1-4.43,39.65,39.65,0,0,0,.4-4.42c.06-1.46.08-2.76.08-3.91s0-2.23-.12-3.62a35.11,35.11,0,0,0-.52-4.31A35.55,35.55,0,0,0,153.7,56a14,14,0,0,0-1.88-3.94,10.18,10.18,0,0,0-2.88-2.79A7.39,7.39,0,0,0,144.86,48.22Z"/><path class="cls-2" d="M184.31,88h5.12V89h-19V88h4.8V49.08h-4.8V48h18.72a49.84,49.84,0,0,1,6.4.43,22,22,0,0,1,6.17,1.66,12.45,12.45,0,0,1,4.64,3.44,8.67,8.67,0,0,1,1.84,5.72,9,9,0,0,1-1.64,5.44,12.65,12.65,0,0,1-4.16,3.62,20.21,20.21,0,0,1-5.61,2,29.36,29.36,0,0,1-6,.65,27.63,27.63,0,0,1-3.16-.19,8.89,8.89,0,0,1-3.16-1Zm.08-19.36a9.69,9.69,0,0,0,4.88,1.23,11.76,11.76,0,0,0,4.24-.74,9.29,9.29,0,0,0,5.37-5.22A10.43,10.43,0,0,0,199.6,60a12.5,12.5,0,0,0-.92-5A8.46,8.46,0,0,0,196,51.51a11.62,11.62,0,0,0-4.2-1.94,22.08,22.08,0,0,0-5.4-.61,7.5,7.5,0,0,0-.76.06l-1.16.12Z"/><path class="cls-2" d="M205.3,106.22a13.39,13.39,0,0,0,3.68-.41,4.67,4.67,0,0,0,2.36-1.52,8.89,8.89,0,0,0,1.54-3.24q.62-2.14,1.43-5.46,4.41-20.16,8.92-40.26t9-40.26h3.48l21.83,91.15h4.51v2.35h-24.5v-2.35h6.87l-6.56-27.76H220.05l-.72,2.77q-.51,2.07-1.23,5.24c-.47,2.12-.94,4.24-1.38,6.36s-.84,4-1.18,5.8a23,23,0,0,0-.51,3.59,3.1,3.1,0,0,0,1,2.49,5.75,5.75,0,0,0,2.31,1.17,10.76,10.76,0,0,0,2.71.34h2.41v2.35H205.3Zm15.26-30.1h16.81l-8.61-36.19Z"/><path class="cls-2" d="M278.32,68.75V88h5.2V89H264V88h4.8l-.4-38.91H264V48h19.53v1h-5.2V67.52H300V49.08h-5V48h19.53v1h-5V88h5V89H295V88h5V68.75Z"/><path class="cls-2" d="M340.18,47.24a18.65,18.65,0,0,1,8.36,1.87A21.79,21.79,0,0,1,355.1,54a22.41,22.41,0,0,1,4.28,6.88,20.76,20.76,0,0,1,1.52,7.72,20.37,20.37,0,0,1-1.52,7.71,21.85,21.85,0,0,1-10.84,11.59,20.06,20.06,0,0,1-16.85,0,20.85,20.85,0,0,1-6.56-5A23.17,23.17,0,0,1,320.89,76a21.5,21.5,0,0,1-1.52-7.87A18.77,18.77,0,0,1,321,60.58a22.62,22.62,0,0,1,4.48-6.7,23.37,23.37,0,0,1,6.6-4.8A18.14,18.14,0,0,1,340.18,47.24Zm.16,1a9,9,0,0,0-4.4,1,9.92,9.92,0,0,0-3.13,2.71,14.49,14.49,0,0,0-2,3.81,31.88,31.88,0,0,0-1.2,4.36,38.83,38.83,0,0,0-.6,4.43c-.1,1.46-.16,2.76-.16,3.9s0,2.52.12,4a38,38,0,0,0,.52,4.42,31.17,31.17,0,0,0,1.12,4.4,13.9,13.9,0,0,0,2,3.84,9.47,9.47,0,0,0,3.09,2.71,9.21,9.21,0,0,0,4.48,1,9,9,0,0,0,4.48-1,9.41,9.41,0,0,0,3-2.74,13.06,13.06,0,0,0,1.84-3.87,30.69,30.69,0,0,0,1-4.43,42.18,42.18,0,0,0,.4-4.42c.05-1.46.08-2.76.08-3.91s0-2.23-.12-3.62a35.11,35.11,0,0,0-.52-4.31A39.5,39.5,0,0,0,349.18,56a14,14,0,0,0-1.88-3.94,10.18,10.18,0,0,0-2.88-2.79A7.39,7.39,0,0,0,340.34,48.22Z"/><path class="cls-2" d="M405.32,75.45V89H365.86V88h5V49.08h-5V48h19.69v1H380V88h9.36q3.68,0,6.44-.27a10,10,0,0,0,4.6-1.51,7.33,7.33,0,0,0,2.76-3.75,21,21,0,0,0,.93-7Z"/><path class="cls-2" d="M409.4,48h19.92v1h-5.76V88h5.76V89H409.4V88h5V49.08h-5Z"/><path class="cls-2" d="M470.3,89a9.72,9.72,0,0,0-.08-1.17,4.17,4.17,0,0,0-.32-1.14,2.58,2.58,0,0,0-.68-.89,1.75,1.75,0,0,0-1.17-.37,2.82,2.82,0,0,0-1.08.31c-.45.2-1,.47-1.56.8a32.69,32.69,0,0,1-4.12,2.06,15.25,15.25,0,0,1-6,1.07,21.33,21.33,0,0,1-8.52-1.63,19.16,19.16,0,0,1-6.44-4.39,19.53,19.53,0,0,1-4.08-6.49,21.44,21.44,0,0,1-1.45-7.9,24.12,24.12,0,0,1,1.41-8.14,21.5,21.5,0,0,1,4-7,19.65,19.65,0,0,1,6.48-4.88,20.07,20.07,0,0,1,8.8-1.85,13.21,13.21,0,0,1,3.84.52,33,33,0,0,1,3.12,1.14l2.72,1.14a7.12,7.12,0,0,0,2.72.52,2.2,2.2,0,0,0,1.45-.4,2.08,2.08,0,0,0,.64-1.26h1.44V61.5h-1.6A12.36,12.36,0,0,0,468.66,57,16.87,16.87,0,0,0,465.89,53a13.84,13.84,0,0,0-4-2.95,10.79,10.79,0,0,0-4.84-1.13,8.84,8.84,0,0,0-4.4,1,10,10,0,0,0-3.12,2.77,14.46,14.46,0,0,0-2,3.9,31.56,31.56,0,0,0-1.2,4.43,31.07,31.07,0,0,0-.56,4.42q-.12,2.19-.12,3.84a43.19,43.19,0,0,0,.48,6.37,17.88,17.88,0,0,0,1.92,5.9,11.68,11.68,0,0,0,4.08,4.36,12.72,12.72,0,0,0,7,1.69,7.31,7.31,0,0,0,4.24-1.32A13.75,13.75,0,0,0,466.69,83a19.78,19.78,0,0,0,2.37-4.3,21.23,21.23,0,0,0,1.24-4.27h1.2V89Z"/><rect class="cls-2" x="22.1" y="94.13" width="193.9" height="1.18"/><rect class="cls-2" x="21.74" y="42.91" width="204.56" height="1.18"/><rect class="cls-2" x="241.91" y="42.91" width="245.2" height="1.18"/><rect class="cls-2" x="248.12" y="93.31" width="239.81" height="1.18"/></svg>