<svg id="Layer_1" data-name="Layer 1" xmlns="http://www.w3.org/2000/svg" width="466.19" height="93.57" viewBox="0 0 466.19 93.57"><defs><style>.cls-1{fill:#1d1d1b;}</style></defs><title>logo</title><path class="cls-1" d="M11.09,59.41h1.2a22.43,22.43,0,0,0,1.28,5.68,12.55,12.55,0,0,0,2.76,4.4,12.19,12.19,0,0,0,4.52,2.86,18.76,18.76,0,0,0,6.48,1,14.91,14.91,0,0,0,4.21-.55,8.8,8.8,0,0,0,3.12-1.57,5.11,5.11,0,0,0,1.68-2.43,4.93,4.93,0,0,0-.12-3.07,5.37,5.37,0,0,0-3.08-2.89q-2.45-1.11-5.73-2.28-2.79-1-5.72-2.15a25.49,25.49,0,0,1-5.4-2.92,14.83,14.83,0,0,1-4-4.21,11,11,0,0,1-1.56-6c0-.37,0-.78,0-1.23a7.86,7.86,0,0,1,.2-1.35,10.82,10.82,0,0,1,4.4-7.41q3.53-2.43,9.52-2.67a15,15,0,0,1,5.61.79,31.28,31.28,0,0,1,3.68,1.66,4.44,4.44,0,0,0,2.24.86c.74,0,1.2-.27,1.36-.82A5.71,5.71,0,0,0,38,33.53h1.28V45.88H37.9a26.59,26.59,0,0,0-1.52-5,12.17,12.17,0,0,0-2.52-3.81,10.72,10.72,0,0,0-3.8-2.42,14.89,14.89,0,0,0-5.37-.87,18.09,18.09,0,0,0-4,.44,10,10,0,0,0-3.32,1.32,6.18,6.18,0,0,0-2.16,2.3,5.93,5.93,0,0,0-.6,3.38,5.3,5.3,0,0,0,1.12,2.86,8.85,8.85,0,0,0,2.48,2.09,19.2,19.2,0,0,0,3.44,1.57c1.28.45,2.62.88,4,1.29,1.76.53,3.54,1.14,5.33,1.81a25.67,25.67,0,0,1,5,2.52,14.89,14.89,0,0,1,3.84,3.66,11.28,11.28,0,0,1,2,5.23,10.48,10.48,0,0,1-.92,5.13,11.55,11.55,0,0,1-3,4,13.64,13.64,0,0,1-4.72,2.55,19.15,19.15,0,0,1-6,.9,19.62,19.62,0,0,1-5.52-.71c-1.6-.47-3-.93-4.16-1.38a17.08,17.08,0,0,0-1.8-.71A5.09,5.09,0,0,0,14,71.76a1.28,1.28,0,0,0-1.24,1,7.25,7.25,0,0,0-.44,1.72h-1.2Z"/><path class="cls-1" d="M61.1,53.75V73h5.21V74H46.78V73h4.8l-.4-38.91h-4.4V33H66.31v1H61.1V52.52H82.79V34.08h-5V33H97.28v1h-5V73h5V74H77.75V73h5V53.75Z"/><path class="cls-1" d="M123,32.24a18.69,18.69,0,0,1,8.37,1.87A21.79,21.79,0,0,1,137.89,39a22.6,22.6,0,0,1,4.28,6.88,21,21,0,0,1,1.52,7.72,20.56,20.56,0,0,1-1.52,7.71,21.85,21.85,0,0,1-10.84,11.59,20.06,20.06,0,0,1-16.85,0,20.85,20.85,0,0,1-6.56-5A23,23,0,0,1,103.68,61a21.29,21.29,0,0,1-1.52-7.87,18.61,18.61,0,0,1,1.64-7.56,22.43,22.43,0,0,1,4.48-6.7,23.23,23.23,0,0,1,6.6-4.8A18.1,18.1,0,0,1,123,32.24Zm.16,1a9.05,9.05,0,0,0-4.4,1,9.78,9.78,0,0,0-3.12,2.71,14.49,14.49,0,0,0-2,3.81,29.26,29.26,0,0,0-1.2,4.36,38.83,38.83,0,0,0-.6,4.43c-.11,1.46-.16,2.76-.16,3.9s0,2.52.12,4a35.91,35.91,0,0,0,.52,4.42,31.17,31.17,0,0,0,1.12,4.4,13.63,13.63,0,0,0,2,3.84,9.43,9.43,0,0,0,3.08,2.71,9.24,9.24,0,0,0,4.48,1,9,9,0,0,0,4.48-1,9.31,9.31,0,0,0,3-2.74,12.84,12.84,0,0,0,1.85-3.87,33.62,33.62,0,0,0,1-4.43c.21-1.49.34-3,.4-4.42s.08-2.76.08-3.91,0-2.23-.12-3.62a37.17,37.17,0,0,0-.52-4.31A39.5,39.5,0,0,0,132,41a14,14,0,0,0-1.89-3.94,10.18,10.18,0,0,0-2.88-2.79A7.39,7.39,0,0,0,123.12,33.22Z"/><path class="cls-1" d="M162.57,73h5.13V74h-19V73h4.8V34.08h-4.8V33h18.73a50,50,0,0,1,6.4.43,22.07,22.07,0,0,1,6.16,1.66,12.37,12.37,0,0,1,4.64,3.44,8.62,8.62,0,0,1,1.84,5.72,9,9,0,0,1-1.64,5.44,12.55,12.55,0,0,1-4.16,3.62,20.26,20.26,0,0,1-5.6,2,29.51,29.51,0,0,1-6,.65,27.67,27.67,0,0,1-3.17-.19,8.89,8.89,0,0,1-3.16-1Zm.08-19.36a9.71,9.71,0,0,0,4.89,1.23,11.8,11.8,0,0,0,4.24-.74,9.24,9.24,0,0,0,5.36-5.22,10.43,10.43,0,0,0,.72-3.94,12.5,12.5,0,0,0-.92-5,8.53,8.53,0,0,0-2.68-3.41,11.78,11.78,0,0,0-4.2-1.94,22.17,22.17,0,0,0-5.41-.61,7.5,7.5,0,0,0-.76.06l-1.16.12Z"/><path class="cls-1" d="M183.56,91.22a13.52,13.52,0,0,0,3.69-.41,4.68,4.68,0,0,0,2.35-1.52,8.89,8.89,0,0,0,1.54-3.24q.62-2.14,1.44-5.46,4.39-20.16,8.91-40.26t9-40.26H214l21.83,91.15h4.51v2.35H215.84V91.22h6.86l-6.55-27.76H198.31l-.71,2.77q-.53,2.07-1.23,5.24T195,77.83q-.66,3.18-1.17,5.8a22.14,22.14,0,0,0-.52,3.59,3.11,3.11,0,0,0,1,2.49,5.7,5.7,0,0,0,2.3,1.17,10.84,10.84,0,0,0,2.72.34h2.41v2.35H183.56Zm15.27-30.1h16.8L207,24.93Z"/><path class="cls-1" d="M256.58,53.75V73h5.2V74H242.26V73h4.8l-.4-38.91h-4.4V33h19.52v1h-5.2V52.52h21.69V34.08h-5V33h19.52v1h-5V73h5V74H273.23V73h5V53.75Z"/><path class="cls-1" d="M318.44,32.24a18.62,18.62,0,0,1,8.36,1.87A21.79,21.79,0,0,1,333.36,39a22.63,22.63,0,0,1,4.29,6.88,21,21,0,0,1,1.52,7.72,20.56,20.56,0,0,1-1.52,7.71A21.91,21.91,0,0,1,326.8,72.93a20,20,0,0,1-16.84,0,21,21,0,0,1-6.57-5A23.37,23.37,0,0,1,299.15,61a21.5,21.5,0,0,1-1.52-7.87,18.77,18.77,0,0,1,1.64-7.56,22.81,22.81,0,0,1,4.48-6.7,23.42,23.42,0,0,1,6.61-4.8A18.07,18.07,0,0,1,318.44,32.24Zm.16,1a9,9,0,0,0-4.4,1,9.78,9.78,0,0,0-3.12,2.71,13.93,13.93,0,0,0-2,3.81,29.26,29.26,0,0,0-1.2,4.36,34.82,34.82,0,0,0-.6,4.43c-.11,1.46-.16,2.76-.16,3.9s0,2.52.12,4a35.91,35.91,0,0,0,.52,4.42,29.86,29.86,0,0,0,1.12,4.4,13.63,13.63,0,0,0,2,3.84,9.33,9.33,0,0,0,3.08,2.71,9.21,9.21,0,0,0,4.48,1,9,9,0,0,0,4.48-1,9.31,9.31,0,0,0,3-2.74,13.06,13.06,0,0,0,1.84-3.87,30.69,30.69,0,0,0,1-4.43,42.18,42.18,0,0,0,.4-4.42c.05-1.46.08-2.76.08-3.91s0-2.23-.12-3.62a35.11,35.11,0,0,0-.52-4.31A39.5,39.5,0,0,0,327.44,41a14,14,0,0,0-1.88-3.94,10.18,10.18,0,0,0-2.88-2.79A7.39,7.39,0,0,0,318.6,33.22Z"/><path class="cls-1" d="M383.58,60.45V74H344.13V73h5V34.08h-5V33h19.68v1h-5.6V73h9.36c2.46,0,4.6-.09,6.44-.27a10,10,0,0,0,4.61-1.51,7.44,7.44,0,0,0,2.76-3.75,21.28,21.28,0,0,0,.92-7Z"/><path class="cls-1" d="M387.66,33h19.93v1h-5.77V73h5.77V74H387.66V73h5V34.08h-5Z"/><path class="cls-1" d="M448.56,74a9.72,9.72,0,0,0-.08-1.17,4.17,4.17,0,0,0-.32-1.14,2.58,2.58,0,0,0-.68-.89,1.74,1.74,0,0,0-1.16-.37,2.73,2.73,0,0,0-1.08.31,16.74,16.74,0,0,0-1.56.8,33.39,33.39,0,0,1-4.12,2.06,15.27,15.27,0,0,1-6,1.07,21.36,21.36,0,0,1-8.52-1.63,19.26,19.26,0,0,1-6.44-4.39,19.53,19.53,0,0,1-4.08-6.49,21.64,21.64,0,0,1-1.44-7.9,24.11,24.11,0,0,1,1.4-8.14,21.5,21.5,0,0,1,4-7A19.65,19.65,0,0,1,425,34.27a20.1,20.1,0,0,1,8.8-1.85,13.21,13.21,0,0,1,3.84.52,33.28,33.28,0,0,1,3.13,1.14c1,.41,1.86.79,2.72,1.14a7.08,7.08,0,0,0,2.72.52,2.19,2.19,0,0,0,1.44-.4,2.08,2.08,0,0,0,.64-1.26h1.44V46.5h-1.6A12.36,12.36,0,0,0,446.92,42,16.55,16.55,0,0,0,444.16,38a13.84,13.84,0,0,0-4-2.95,10.86,10.86,0,0,0-4.85-1.13,8.87,8.87,0,0,0-4.4,1,10,10,0,0,0-3.12,2.77,14.74,14.74,0,0,0-2,3.9,31.56,31.56,0,0,0-1.2,4.43,32.58,32.58,0,0,0-.56,4.42q-.12,2.19-.12,3.84a43.19,43.19,0,0,0,.48,6.37,17.88,17.88,0,0,0,1.92,5.9,11.68,11.68,0,0,0,4.08,4.36,12.72,12.72,0,0,0,7,1.69,7.34,7.34,0,0,0,4.25-1.32A13.75,13.75,0,0,0,445,68a20.17,20.17,0,0,0,2.36-4.3,21.23,21.23,0,0,0,1.24-4.27h1.2V74Z"/><rect class="cls-1" x="0.37" y="79.13" width="193.9" height="1.18"/><rect class="cls-1" y="27.91" width="204.56" height="1.18"/><rect class="cls-1" x="220.17" y="27.91" width="245.2" height="1.18"/><rect class="cls-1" x="226.38" y="78.31" width="239.81" height="1.18"/></svg>
